<!-- Generator: Adobe Illustrator 20.1.0, SVG Export Plug-In  -->
<svg version="1.1"
	 xmlns="http://www.w3.org/2000/svg" xmlns:xlink="http://www.w3.org/1999/xlink" xmlns:a="http://ns.adobe.com/AdobeSVGViewerExtensions/3.0/"
	 x="0px" y="0px" width="250.8px" height="250.1px" viewBox="-20 0 290.8 250.8"
	 style="overflow:scroll;enable-background:new 0 0 250.8 250.1;" xml:space="preserve">
<style type="text/css">
	.st0{fill:url(#SVGID_1_);}
	.st1{fill:#FFFFFF;}
	.st2{fill:url(#SVGID_2_);}
	.st3{fill:url(#SVGID_3_);}
	.st4{fill:url(#SVGID_4_);}
</style>
<defs>
</defs>
<linearGradient id="SVGID_1_" gradientUnits="userSpaceOnUse" x1="0.1759" y1="175.629" x2="250.6814" y2="175.629" gradientTransform="matrix(1 -1.000830e-03 -7.206266e-04 -0.7201 7.570076e-02 251.6761)">
	<stop  offset="0" style="stop-color:#40485A"/>
	<stop  offset="1" style="stop-color:#231F20"/>
</linearGradient>
<path class="st0" d="M0,0.3L250.5,0l0.3,249.9L0.3,250.1L0,0.3z"/>
<g>
	<g>
		<path class="st1" d="M77.9,162.1l-8.8-25.8l-9.1,0l0,4l3.4,0l0,25.2l-3.4,0l0,4.3l10.6,0l0-4.3l-3.4,0l0-22.4l9.1,26.7l3.1,0
			l9.8-26.7l0,22.4l-3.4,0l0,4.3l10.9,0l0-4.3l-3.4,0l0-25.2l3.4,0l0-4.3l-9.3,0L77.9,162.1z M114.2,140.3l2.9,0l0,17.8
			c0,4.6-2.1,7.4-5.4,7.4c-3.4,0-5.4-2.8-5.4-7.4l0-17.8l2.9,0l0-4.3l-10.6,0l0,4.3l3.4,0l0,18.4c0,7.4,3.6,11.7,9.6,11.6
			c6,0,9.8-4.6,9.8-11.7l0-18.4l3.4,0l0-4.3l-10.6,0L114.2,140.3L114.2,140.3z M138,150.7l-2.1-0.6c-0.8-0.3-1.8-0.6-2.3-0.9
			c-1.6-0.9-2.3-2.5-2.3-4.3c0-3.1,1.8-5.2,4.4-5.2s4.1,2.1,4.4,5.2l3.9,0l0-8.6l-2.9,0l0,2.5c-1.3-2.1-2.9-3.4-5.4-3.4
			c-4.7,0-8.5,4.3-8.5,9.5c0,2.5,0.8,4.9,2.6,6.7c1.3,1.5,2.6,2.1,6,3.1c4.4,1.2,5.7,2.8,5.7,5.8c0,3.1-2.1,5.5-4.9,5.5
			c-3.1,0-4.9-2.1-4.9-6.1l-3.9,0l0,9.5l3.1,0l0-2.5c1.6,2.5,3.4,3.4,6,3.4c4.9,0,8.8-4.3,8.8-10.1C145.5,155.3,142.9,152,138,150.7
			z M148.4,140.3l3.4,0l0,25.2l-3.4,0l0,4.3l10.9,0l0-4.3l-3.4,0l0-25.2l3.4,0l0-4.3l-10.9,0L148.4,140.3z M184.7,159.6
			c-2.1,3.7-5.2,5.8-8.8,5.8c-5.7,0-10.4-5.5-10.4-12.6c0-7.1,4.7-12.6,10.4-12.6c3.6,0,6.7,1.8,8.6,5.5l4.1,0l0-9.5l-3.6,0l0,3.7
			c-2.6-3.1-5.4-4.6-9.3-4.6c-8,0-14.5,7.7-14.5,17.5c0,9.8,6.5,17.8,14.8,17.8c6,0,10.9-4.3,13.2-10.8l-4.4,0
			C184.7,159.9,184.7,159.6,184.7,159.6z"/>
	</g>
	<g>
		<polygon class="st1" points="111.5,121 111.5,128.4 140.8,128.3 140.8,113.9 134.3,113.9 134.3,121 122.9,121 122.9,108.1 
			133.8,108.1 133.8,100.7 122.9,100.7 122.9,88.8 134.3,88.8 134.3,95.8 140.8,95.8 140.8,81.4 99.1,81.4 99.1,81.4 98.8,81.4 
			98.8,88.2 99.1,88.2 99.1,88.8 102.7,88.8 97,114.6 89,81.4 83,81.4 75.5,114.9 69.3,88.8 73.2,88.8 73.2,88.2 73.2,88.2 
			73.1,81.5 73.1,81.5 73.1,81.5 58.1,81.5 58.1,88.8 62,88.8 71.6,128.4 78.4,128.4 86.1,95.9 93.9,128.4 100.7,128.4 109.7,88.8 
			115.7,88.8 115.7,121 		"/>
	</g>
	
		<linearGradient id="SVGID_2_" gradientUnits="userSpaceOnUse" x1="145.0973" y1="126.6424" x2="192.887" y2="126.6424" gradientTransform="matrix(1 -1.000764e-03 1.000764e-03 1 -0.1948 -20.8745)">
		<stop  offset="0" style="stop-color:#BF1F39"/>
		<stop  offset="0.5026" style="stop-color:#BF1F39"/>
	</linearGradient>
	<path class="st2" d="M180.2,79.5c-4.9,0-9.3,3.7-11.4,9.2c-2.1-5.5-6.2-9.2-11.4-9.2c-7,0-12.4,7.1-12.4,16c0,4.3,1.8,8.9,4.2,12.3
		c2.9,4,11.2,14.4,19.7,23.9l0,0l0,0l0,0l0,0c8.5-9.5,16.8-19.7,19.7-24c2.3-3.4,4.1-8,4.1-12.3C192.9,86.6,187.2,79.5,180.2,79.5z"
		/>
</g>
</svg>
