<?xml version="1.0" encoding="utf-8"?>
<!-- Generator: Adobe Illustrator 16.0.0, SVG Export Plug-In . SVG Version: 6.00 Build 0)  -->
<!DOCTYPE svg PUBLIC "-//W3C//DTD SVG 1.1//EN" "http://www.w3.org/Graphics/SVG/1.1/DTD/svg11.dtd">
<svg version="1.1" id="Layer_1" xmlns="http://www.w3.org/2000/svg" xmlns:xlink="http://www.w3.org/1999/xlink" x="0px" y="0px"
	 width="100px" height="100px" viewBox="0 0 100 100" enable-background="new 0 0 100 100" xml:space="preserve">
<g>
	<defs>
		<rect id="SVGID_1_" x="1.688" y="2.689" width="96.312" height="96.308"/>
	</defs>
	<clipPath id="SVGID_2_">
		<use xlink:href="#SVGID_1_"  overflow="visible"/>
	</clipPath>
	<path clip-path="url(#SVGID_2_)" fill="none" stroke="#000000" stroke-width="3.3055" stroke-miterlimit="10" d="M96.345,50.843
		c0,25.682-20.821,46.502-46.502,46.502s-46.5-20.82-46.5-46.502c0-25.679,20.819-46.504,46.5-46.504S96.345,25.164,96.345,50.843z"
		/>
	<path clip-path="url(#SVGID_2_)" d="M62.162,81.535H37.524c-10.937,0-19.836-8.902-19.836-19.837V39.984
		c0-10.933,8.9-19.833,19.836-19.833h24.638c10.936,0,19.837,8.9,19.837,19.833v21.714C81.999,72.633,73.098,81.535,62.162,81.535
		 M37.524,24.563c-8.507,0-15.429,6.917-15.429,15.421v21.714c0,8.513,6.922,15.43,15.429,15.43h24.638
		c8.509,0,15.43-6.917,15.43-15.43V39.984c0-8.505-6.921-15.421-15.43-15.421H37.524z M49.842,68.504
		c-9.733,0-17.653-7.926-17.653-17.661S40.109,33.19,49.842,33.19c9.74,0,17.653,7.917,17.653,17.652S59.582,68.504,49.842,68.504
		 M49.842,37.598c-7.306,0-13.246,5.939-13.246,13.245s5.94,13.254,13.246,13.254c7.305,0,13.246-5.948,13.246-13.254
		S57.147,37.598,49.842,37.598 M67.229,30.067c-2.024,0-3.664,1.64-3.664,3.663c0,2.021,1.64,3.665,3.664,3.665
		c2.025,0,3.661-1.644,3.661-3.665C70.89,31.708,69.254,30.067,67.229,30.067"/>
</g>
</svg>
