<!-- Generator: Adobe Illustrator 20.1.0, SVG Export Plug-In  -->
<svg version="1.1"
	 xmlns="http://www.w3.org/2000/svg" xmlns:xlink="http://www.w3.org/1999/xlink" xmlns:a="http://ns.adobe.com/AdobeSVGViewerExtensions/3.0/"
	 x="0px" y="0px" width="88.8px" height="88.8px" viewBox="0 0 88.8 88.8" style="enable-background:new 0 0 88.8 88.8;"
	 xml:space="preserve">
<style type="text/css">
	.st0{fill:none;stroke:#000000;stroke-width:3;stroke-miterlimit:10;}
</style>
<defs>
</defs>
<path class="st0" d="M40.7,36.8c0,2.8,0,5.7,0,8.5c-0.4-0.1-1-0.2-1.4-0.3c-3.3-0.4-6.4,1.7-7.4,4.8s0.3,6.6,3,8.3
	c1.2,0.8,2.6,1.2,4,1.2c1.6-0.1,3-0.5,4.3-1.6c1.4-1.2,2.2-2.7,2.6-4.3c0.1-0.4,0.1-0.7,0.1-1.2c0-11,0-22.1,0-33c0-0.2,0-0.4,0-0.5
	c2.7,0,5.6,0,8.2,0c0.2,3.2,1.2,5.9,3.5,8.1c2.2,2.3,5,3.5,8.1,3.5c0,0.1,0,0.2,0,0.2c0,2.7,0.1,5.2,0.1,7.9c0,0.4-0.2,0.4-0.4,0.4
	c-2.9-0.1-5.8-0.7-8.4-1.9c-1-0.4-1.9-1.1-2.8-1.6c0,0.2,0,0.3,0,0.4c0,5.5,0,11.1,0,16.6c0,7.3-4.9,13.6-11.9,15.1
	c-4.2,1.1-8.1,0.4-11.8-1.9c-0.7-0.4-1.4-1.1-2-1.6c-1.2-1.1-2.2-2.2-3.1-3.6c-1.1-1.8-1.9-3.6-2-5.7c-0.2-1-0.3-1.9-0.3-2.7
	c0.1-2.7,0.9-5.3,2.3-7.7c0.7-1.2,1.4-2.1,2.4-3c2.2-2.1,4.9-3.5,8-4.2c1.1-0.2,2.1-0.3,3.3-0.4C39.5,36.6,40.1,36.7,40.7,36.8z"/>
<circle class="st0" cx="44.4" cy="44.4" r="42.9"/>
</svg>
