<?xml version="1.0" encoding="utf-8"?>
<!-- Generator: Adobe Illustrator 16.0.0, SVG Export Plug-In . SVG Version: 6.00 Build 0)  -->
<!DOCTYPE svg PUBLIC "-//W3C//DTD SVG 1.1//EN" "http://www.w3.org/Graphics/SVG/1.1/DTD/svg11.dtd">
<svg version="1.1" id="Layer_1" xmlns="http://www.w3.org/2000/svg" xmlns:xlink="http://www.w3.org/1999/xlink" x="0px" y="0px"
	 width="100px" height="100px" viewBox="0 0 100 100" enable-background="new 0 0 100 100" xml:space="preserve">
<g>
	<defs>
		<rect id="SVGID_1_" x="0.686" y="1.688" width="98.317" height="98.313"/>
	</defs>
	<clipPath id="SVGID_2_">
		<use xlink:href="#SVGID_1_"  overflow="visible"/>
	</clipPath>
	<path clip-path="url(#SVGID_2_)" fill="none" stroke="#000000" stroke-width="3.3743" stroke-miterlimit="10" d="M97.313,50.846
		c0,26.214-21.255,47.468-47.47,47.468c-26.216,0-47.468-21.254-47.468-47.468c0-26.22,21.252-47.472,47.468-47.472
		C76.058,3.374,97.313,24.626,97.313,50.846z"/>
	<path clip-path="url(#SVGID_2_)" d="M53.247,77.765H44.05c-1.536,0-2.785-1.248-2.785-2.78v-20.74h-5.366
		c-1.536,0-2.785-1.252-2.785-2.786v-8.889c0-1.536,1.249-2.787,2.785-2.787h5.366v-4.452c0-4.412,1.386-8.169,4.009-10.858
		c2.63-2.702,6.314-4.128,10.644-4.128l7.008,0.012c1.536,0,2.78,1.252,2.78,2.785v8.254c0,1.536-1.244,2.786-2.784,2.786h-4.718
		c-1.439,0-1.813,0.29-1.885,0.377c-0.134,0.146-0.288,0.56-0.288,1.707v3.518h6.538c0.494,0,0.969,0.122,1.378,0.349
		c0.884,0.495,1.431,1.429,1.431,2.438v8.889c0,1.534-1.248,2.786-2.789,2.786h-6.558v20.74
		C56.031,76.517,54.783,77.765,53.247,77.765 M44.632,74.4h8.035V52.732c0-1.025,0.835-1.858,1.86-1.858h7.482l0.004-7.725h-7.486
		c-1.025,0-1.86-0.833-1.86-1.858v-5.026c0-1.313,0.138-2.811,1.123-3.936c1.199-1.358,3.093-1.514,4.414-1.514l4.138-0.004v-7.089
		l-6.428-0.014c-6.959,0-11.282,4.455-11.282,11.623v5.96c0,1.021-0.835,1.858-1.86,1.858h-6.291v7.725h6.291
		c1.025,0,1.86,0.833,1.86,1.858V74.4z"/>
</g>
</svg>
