<?xml version="1.0" encoding="utf-8"?>
<!-- Generator: Adobe Illustrator 16.0.0, SVG Export Plug-In . SVG Version: 6.00 Build 0)  -->
<!DOCTYPE svg PUBLIC "-//W3C//DTD SVG 1.1//EN" "http://www.w3.org/Graphics/SVG/1.1/DTD/svg11.dtd">
<svg version="1.1" id="Layer_1" xmlns="http://www.w3.org/2000/svg" xmlns:xlink="http://www.w3.org/1999/xlink" x="0px" y="0px"
	 width="100px" height="100px" viewBox="0 0 100 100" enable-background="new 0 0 100 100" xml:space="preserve">
<g>
	<defs>
		<rect id="SVGID_1_" x="1.675" y="2.52" width="96.651" height="96.647"/>
	</defs>
	<clipPath id="SVGID_2_">
		<use xlink:href="#SVGID_1_"  overflow="visible"/>
	</clipPath>
	<path clip-path="url(#SVGID_2_)" fill="none" stroke="#000000" stroke-width="3.3171" stroke-miterlimit="10" d="M96.664,50.843
		c0,25.771-20.894,46.666-46.666,46.666c-25.771,0-46.664-20.895-46.664-46.666c0-25.77,20.893-46.667,46.664-46.667
		C75.771,4.175,96.664,25.073,96.664,50.843z"/>
	<path clip-path="url(#SVGID_2_)" d="M71.821,28.315c-1.482-1.354-7.446-5.688-20.739-5.751c0,0-15.681-0.945-23.327,6.066
		c-4.252,4.256-5.754,10.481-5.903,18.206c-0.16,7.729-0.365,22.186,13.584,26.105h0.01l-0.01,5.985c0,0-0.089,2.43,1.506,2.924
		c1.927,0.598,3.06-1.242,4.905-3.227c1.008-1.092,2.411-2.701,3.465-3.922c9.535,0.798,16.875-1.035,17.703-1.299
		c1.925-0.629,12.826-2.031,14.595-16.487C79.44,42.008,76.73,32.57,71.821,28.315 M73.436,55.848
		c-1.503,12.073-10.34,12.838-11.962,13.355c-0.697,0.224-7.137,1.833-15.236,1.3c0,0-6.039,7.275-7.919,9.18
		c-0.293,0.287-0.644,0.414-0.873,0.35c-0.323-0.079-0.413-0.461-0.413-1.02c0.008-0.805,0.054-9.952,0.054-9.952
		c-0.008,0-0.008,0,0,0C25.295,65.793,25.98,53.469,26.116,47.022c0.133-6.451,1.347-11.73,4.94-15.278
		c6.467-5.851,19.783-4.979,19.783-4.979c11.248,0.054,16.64,3.435,17.891,4.57C72.873,34.893,74.984,43.392,73.436,55.848"/>
	<path clip-path="url(#SVGID_2_)" d="M56.549,47.247c-0.398,0-0.729-0.315-0.748-0.713c-0.125-2.555-1.327-3.804-3.79-3.933
		c-0.41-0.026-0.729-0.376-0.71-0.792c0.024-0.417,0.38-0.734,0.794-0.709c3.243,0.171,5.048,2.028,5.208,5.361
		c0.019,0.417-0.304,0.767-0.718,0.787H56.549z"/>
	<path clip-path="url(#SVGID_2_)" d="M60.414,48.54h-0.017c-0.418-0.008-0.748-0.351-0.736-0.765c0.06-2.57-0.678-4.652-2.248-6.365
		c-1.569-1.709-3.718-2.644-6.55-2.843c-0.418-0.028-0.733-0.389-0.702-0.805c0.032-0.41,0.391-0.725,0.805-0.697
		c3.195,0.229,5.737,1.351,7.559,3.329c1.813,1.984,2.709,4.476,2.638,7.413C61.155,48.213,60.82,48.54,60.414,48.54"/>
	<path clip-path="url(#SVGID_2_)" d="M64.362,50.094c-0.41,0-0.749-0.335-0.749-0.75c-0.032-4.526-1.395-8.142-4.048-10.732
		c-2.658-2.59-6.013-3.917-9.981-3.94c-0.41-0.004-0.745-0.343-0.745-0.755c0.004-0.416,0.339-0.747,0.753-0.747h0.004
		c4.367,0.024,8.073,1.498,11.021,4.365c2.948,2.885,4.458,6.856,4.502,11.802c0,0.415-0.334,0.753-0.752,0.757H64.362z"/>
	<path clip-path="url(#SVGID_2_)" d="M52.206,56.565c0,0,1.06,0.095,1.626-0.615l1.104-1.394c0.533-0.693,1.828-1.132,3.092-0.423
		c0.709,0.398,1.977,1.18,2.761,1.754c0.841,0.621,2.558,2.056,2.558,2.056c0.826,0.686,1.013,1.697,0.455,2.772
		c0,0.009-0.009,0.017-0.009,0.017c-0.569,1.013-1.334,1.96-2.311,2.845c-0.008,0.008-0.008,0.008-0.016,0.017
		c-0.793,0.661-1.581,1.052-2.347,1.132c-0.092,0.023-0.203,0.031-0.339,0.023c-0.339,0-0.669-0.048-1-0.152l-0.024-0.04
		c-1.187-0.326-3.159-1.171-6.451-2.972c-2.143-1.179-3.916-2.383-5.414-3.578c-0.795-0.629-1.604-1.339-2.435-2.159l-0.082-0.088
		l-0.078-0.071l-0.082-0.088l-0.082-0.08c-0.821-0.829-1.534-1.638-2.156-2.434c-1.195-1.494-2.403-3.28-3.578-5.416
		c-1.811-3.287-2.651-5.261-2.978-6.445l-0.036-0.03c-0.109-0.329-0.163-0.659-0.151-0.998c-0.012-0.131,0-0.249,0.016-0.339
		c0.09-0.767,0.474-1.552,1.131-2.347c0.012-0.007,0.012-0.007,0.02-0.016c0.885-0.976,1.827-1.743,2.847-2.309
		c0.008,0,0.016-0.012,0.016-0.012c1.07-0.552,2.086-0.364,2.775,0.457c0.008,0.008,1.437,1.721,2.052,2.562
		c0.58,0.791,1.363,2.052,1.755,2.753c0.705,1.265,0.269,2.56-0.428,3.098l-1.393,1.105c-0.702,0.572-0.612,1.624-0.612,1.624
		S44.48,54.597,52.206,56.565"/>
</g>
</svg>
